<?xml version="1.0" encoding="UTF-8" standalone="no"?>
<!DOCTYPE svg PUBLIC "-//W3C//DTD SVG 1.1//EN"
 "http://www.w3.org/Graphics/SVG/1.1/DTD/svg11.dtd">
<!-- Generated by graphviz version 2.30.1 (20180420.1509)
 -->
<!-- Title: %3 Pages: 1 -->
<svg width="681pt" height="332pt"
 viewBox="0.00 0.00 681.00 332.00" xmlns="http://www.w3.org/2000/svg" xmlns:xlink="http://www.w3.org/1999/xlink">
<g id="graph0" class="graph" transform="scale(1 1) rotate(0) translate(4 328)">
<title>%3</title>
<polygon fill="white" stroke="white" points="-4,5 -4,-328 678,-328 678,5 -4,5"/>
<!-- [root] aws_instance.secondserver -->
<g id="node1" class="node"><title>[root] aws_instance.secondserver</title>
<polygon fill="none" stroke="black" points="673.25,-180 510.75,-180 510.75,-144 673.25,-144 673.25,-180"/>
<text text-anchor="middle" x="592" y="-158.3" font-family="Times,serif" font-size="14.00">aws_instance.secondserver</text>
</g>
<!-- [root] data.aws_ami.ubuntu -->
<g id="node6" class="node"><title>[root] data.aws_ami.ubuntu</title>
<polygon fill="none" stroke="black" points="629.25,-108 496.75,-108 496.75,-72 629.25,-72 629.25,-108"/>
<text text-anchor="middle" x="563" y="-86.3" font-family="Times,serif" font-size="14.00">data.aws_ami.ubuntu</text>
</g>
<!-- [root] aws_instance.secondserver&#45;&gt;[root] data.aws_ami.ubuntu -->
<g id="edge1" class="edge"><title>[root] aws_instance.secondserver&#45;&gt;[root] data.aws_ami.ubuntu</title>
<path fill="none" stroke="black" d="M584.831,-143.697C581.565,-135.813 577.626,-126.304 573.998,-117.546"/>
<polygon fill="black" stroke="black" points="577.147,-116.003 570.086,-108.104 570.68,-118.683 577.147,-116.003"/>
</g>
<!-- [root] aws_security_group.subnetsecurity -->
<g id="node2" class="node"><title>[root] aws_security_group.subnetsecurity</title>
<polygon fill="none" stroke="black" points="206.25,-180 -0.25,-180 -0.25,-144 206.25,-144 206.25,-180"/>
<text text-anchor="middle" x="103" y="-158.3" font-family="Times,serif" font-size="14.00">aws_security_group.subnetsecurity</text>
</g>
<!-- [root] aws_vpc.environment&#45;example&#45;two -->
<g id="node5" class="node"><title>[root] aws_vpc.environment&#45;example&#45;two</title>
<polygon fill="none" stroke="black" points="421,-108 209,-108 209,-72 421,-72 421,-108"/>
<text text-anchor="middle" x="315" y="-86.3" font-family="Times,serif" font-size="14.00">aws_vpc.environment&#45;example&#45;two</text>
</g>
<!-- [root] aws_security_group.subnetsecurity&#45;&gt;[root] aws_vpc.environment&#45;example&#45;two -->
<g id="edge2" class="edge"><title>[root] aws_security_group.subnetsecurity&#45;&gt;[root] aws_vpc.environment&#45;example&#45;two</title>
<path fill="none" stroke="black" d="M154.59,-143.966C184.469,-134.1 222.26,-121.622 253.656,-111.255"/>
<polygon fill="black" stroke="black" points="254.78,-114.57 263.179,-108.111 252.586,-107.923 254.78,-114.57"/>
</g>
<!-- [root] aws_subnet.subnet1 -->
<g id="node3" class="node"><title>[root] aws_subnet.subnet1</title>
<polygon fill="none" stroke="black" points="349.25,-180 224.75,-180 224.75,-144 349.25,-144 349.25,-180"/>
<text text-anchor="middle" x="287" y="-158.3" font-family="Times,serif" font-size="14.00">aws_subnet.subnet1</text>
</g>
<!-- [root] aws_subnet.subnet1&#45;&gt;[root] aws_vpc.environment&#45;example&#45;two -->
<g id="edge3" class="edge"><title>[root] aws_subnet.subnet1&#45;&gt;[root] aws_vpc.environment&#45;example&#45;two</title>
<path fill="none" stroke="black" d="M293.921,-143.697C297.075,-135.813 300.878,-126.304 304.381,-117.546"/>
<polygon fill="black" stroke="black" points="307.694,-118.689 308.158,-108.104 301.195,-116.089 307.694,-118.689"/>
</g>
<!-- [root] aws_subnet.subnet2 -->
<g id="node4" class="node"><title>[root] aws_subnet.subnet2</title>
<polygon fill="none" stroke="black" points="492.25,-180 367.75,-180 367.75,-144 492.25,-144 492.25,-180"/>
<text text-anchor="middle" x="430" y="-158.3" font-family="Times,serif" font-size="14.00">aws_subnet.subnet2</text>
</g>
<!-- [root] aws_subnet.subnet2&#45;&gt;[root] aws_vpc.environment&#45;example&#45;two -->
<g id="edge4" class="edge"><title>[root] aws_subnet.subnet2&#45;&gt;[root] aws_vpc.environment&#45;example&#45;two</title>
<path fill="none" stroke="black" d="M401.868,-143.876C386.832,-134.724 368.133,-123.342 351.94,-113.485"/>
<polygon fill="black" stroke="black" points="353.602,-110.4 343.24,-108.19 349.962,-116.379 353.602,-110.4"/>
</g>
<!-- [root] provider.aws -->
<g id="node7" class="node"><title>[root] provider.aws</title>
<polygon fill="none" stroke="black" points="439,-36 359.55,-18 439,-3.55271e-15 518.45,-18 439,-36"/>
<text text-anchor="middle" x="439" y="-14.3" font-family="Times,serif" font-size="14.00">provider.aws</text>
</g>
<!-- [root] aws_vpc.environment&#45;example&#45;two&#45;&gt;[root] provider.aws -->
<g id="edge5" class="edge"><title>[root] aws_vpc.environment&#45;example&#45;two&#45;&gt;[root] provider.aws</title>
<path fill="none" stroke="black" d="M345.334,-71.8761C364.435,-61.0932 389.017,-47.2159 408.206,-36.3838"/>
<polygon fill="black" stroke="black" points="410.157,-39.3016 417.145,-31.3378 406.716,-33.2059 410.157,-39.3016"/>
</g>
<!-- [root] data.aws_ami.ubuntu&#45;&gt;[root] provider.aws -->
<g id="edge6" class="edge"><title>[root] data.aws_ami.ubuntu&#45;&gt;[root] provider.aws</title>
<path fill="none" stroke="black" d="M532.666,-71.8761C513.565,-61.0932 488.983,-47.2159 469.794,-36.3838"/>
<polygon fill="black" stroke="black" points="471.284,-33.2059 460.855,-31.3378 467.843,-39.3016 471.284,-33.2059"/>
</g>
<!-- [root] meta.count&#45;boundary (count boundary fixup) -->
<g id="node8" class="node"><title>[root] meta.count&#45;boundary (count boundary fixup)</title>
<ellipse fill="none" stroke="black" cx="195" cy="-234" rx="193.049" ry="18"/>
<text text-anchor="middle" x="195" y="-230.3" font-family="Times,serif" font-size="14.00">[root] meta.count&#45;boundary (count boundary fixup)</text>
</g>
<!-- [root] meta.count&#45;boundary (count boundary fixup)&#45;&gt;[root] aws_instance.secondserver -->
<g id="edge7" class="edge"><title>[root] meta.count&#45;boundary (count boundary fixup)&#45;&gt;[root] aws_instance.secondserver</title>
<path fill="none" stroke="black" d="M283.765,-217.944C342.369,-207.929 421.131,-194.327 500.464,-180.084"/>
<polygon fill="black" stroke="black" points="501.422,-183.468 510.645,-178.253 500.184,-176.578 501.422,-183.468"/>
</g>
<!-- [root] meta.count&#45;boundary (count boundary fixup)&#45;&gt;[root] aws_security_group.subnetsecurity -->
<g id="edge8" class="edge"><title>[root] meta.count&#45;boundary (count boundary fixup)&#45;&gt;[root] aws_security_group.subnetsecurity</title>
<path fill="none" stroke="black" d="M172.729,-216.055C160.951,-207.093 146.314,-195.957 133.497,-186.204"/>
<polygon fill="black" stroke="black" points="135.462,-183.301 125.384,-180.032 131.223,-188.872 135.462,-183.301"/>
</g>
<!-- [root] meta.count&#45;boundary (count boundary fixup)&#45;&gt;[root] aws_subnet.subnet1 -->
<g id="edge9" class="edge"><title>[root] meta.count&#45;boundary (count boundary fixup)&#45;&gt;[root] aws_subnet.subnet1</title>
<path fill="none" stroke="black" d="M217.271,-216.055C229.049,-207.093 243.686,-195.957 256.503,-186.204"/>
<polygon fill="black" stroke="black" points="258.777,-188.872 264.616,-180.032 254.538,-183.301 258.777,-188.872"/>
</g>
<!-- [root] meta.count&#45;boundary (count boundary fixup)&#45;&gt;[root] aws_subnet.subnet2 -->
<g id="edge10" class="edge"><title>[root] meta.count&#45;boundary (count boundary fixup)&#45;&gt;[root] aws_subnet.subnet2</title>
<path fill="none" stroke="black" d="M249.8,-216.676C283.521,-206.632 326.984,-193.686 362.776,-183.024"/>
<polygon fill="black" stroke="black" points="364.069,-186.291 372.653,-180.082 362.07,-179.582 364.069,-186.291"/>
</g>
<!-- [root] provider.aws (close) -->
<g id="node9" class="node"><title>[root] provider.aws (close)</title>
<ellipse fill="none" stroke="black" cx="511" cy="-234" rx="104.937" ry="18"/>
<text text-anchor="middle" x="511" y="-230.3" font-family="Times,serif" font-size="14.00">[root] provider.aws (close)</text>
</g>
<!-- [root] provider.aws (close)&#45;&gt;[root] aws_instance.secondserver -->
<g id="edge11" class="edge"><title>[root] provider.aws (close)&#45;&gt;[root] aws_instance.secondserver</title>
<path fill="none" stroke="black" d="M530.608,-216.055C540.78,-207.264 553.374,-196.38 564.503,-186.763"/>
<polygon fill="black" stroke="black" points="567.014,-189.218 572.292,-180.032 562.437,-183.922 567.014,-189.218"/>
</g>
<!-- [root] provider.aws (close)&#45;&gt;[root] aws_security_group.subnetsecurity -->
<g id="edge12" class="edge"><title>[root] provider.aws (close)&#45;&gt;[root] aws_security_group.subnetsecurity</title>
<path fill="none" stroke="black" d="M439.465,-220.727C376.711,-209.96 284.494,-194.139 212.465,-181.781"/>
<polygon fill="black" stroke="black" points="212.888,-178.302 202.441,-180.061 211.705,-185.202 212.888,-178.302"/>
</g>
<!-- [root] provider.aws (close)&#45;&gt;[root] aws_subnet.subnet1 -->
<g id="edge13" class="edge"><title>[root] provider.aws (close)&#45;&gt;[root] aws_subnet.subnet1</title>
<path fill="none" stroke="black" d="M462.946,-217.983C430.398,-207.812 387.013,-194.254 351.469,-183.147"/>
<polygon fill="black" stroke="black" points="352.257,-179.726 341.668,-180.084 350.169,-186.407 352.257,-179.726"/>
</g>
<!-- [root] provider.aws (close)&#45;&gt;[root] aws_subnet.subnet2 -->
<g id="edge14" class="edge"><title>[root] provider.aws (close)&#45;&gt;[root] aws_subnet.subnet2</title>
<path fill="none" stroke="black" d="M491.392,-216.055C481.22,-207.264 468.626,-196.38 457.497,-186.763"/>
<polygon fill="black" stroke="black" points="459.563,-183.922 449.708,-180.032 454.986,-189.218 459.563,-183.922"/>
</g>
<!-- [root] root -->
<g id="node10" class="node"><title>[root] root</title>
<ellipse fill="none" stroke="black" cx="353" cy="-306" rx="47.169" ry="18"/>
<text text-anchor="middle" x="353" y="-302.3" font-family="Times,serif" font-size="14.00">[root] root</text>
</g>
<!-- [root] root&#45;&gt;[root] meta.count&#45;boundary (count boundary fixup) -->
<g id="edge15" class="edge"><title>[root] root&#45;&gt;[root] meta.count&#45;boundary (count boundary fixup)</title>
<path fill="none" stroke="black" d="M323.281,-291.834C300.432,-281.71 268.425,-267.53 242.098,-255.866"/>
<polygon fill="black" stroke="black" points="243.244,-252.546 232.683,-251.695 240.409,-258.946 243.244,-252.546"/>
</g>
<!-- [root] root&#45;&gt;[root] provider.aws (close) -->
<g id="edge16" class="edge"><title>[root] root&#45;&gt;[root] provider.aws (close)</title>
<path fill="none" stroke="black" d="M382.719,-291.834C406.148,-281.453 439.206,-266.807 465.895,-254.983"/>
<polygon fill="black" stroke="black" points="467.319,-258.181 475.044,-250.93 464.483,-251.781 467.319,-258.181"/>
</g>
</g>
</svg>
